<svg version="1.2" xmlns="http://www.w3.org/2000/svg" viewBox="0 0 589 428" width="589" height="428"><defs><clipPath clipPathUnits="userSpaceOnUse" id="cp1"><path d="m592.4 418.3h-564.4v-399.3h564.4z" /></clipPath><clipPath clipPathUnits="userSpaceOnUse" id="cp2"><path d="m65.06 276.43c-0.49 12.68 1.87 21.12 3.36 25.22l33.66 32.92c-18.38-27.95-26.71-69.56-13.66-78.51c13.04-9.07 16.15 19.13 15.28 45.47q-0.31 5.04-0.12 10.09q0.19 5.05 0.87 10.06q0.69 5 1.87 9.91q1.18 4.92 2.84 9.69l40.25 39.5c-17.64-27.82-26.08-69.07-12.54-76.89c10.31-5.96 15.15 11.8 14.16 41.49q-0.23 5.48 0.06 10.95q0.29 5.48 1.08 10.9q0.8 5.42 2.1 10.75q1.3 5.33 3.09 10.51l19.01 18.63q-0.23 0.57-0.55 1.1q-0.32 0.53-0.72 1q-0.39 0.48-0.85 0.89q-0.47 0.4-0.98 0.74l-7.46-7.46q-4.5-1.27-9.12-2.02q-4.61-0.75-9.29-0.97q-4.67-0.22-9.34 0.09q-4.67 0.32-9.27 1.16c-24.1 3.73-50.43 3.11-43.48-11.8c7.08-14.9 45.72-10.18 73.3 6.59l-33.3-32.55q-4.17-0.97-8.43-1.51q-4.25-0.54-8.54-0.64q-4.29-0.11-8.57 0.21q-4.27 0.32-8.49 1.07c-23.98 3.73-50.32 3.11-43.36-11.8c6.58-13.91 41-10.81 67.95 3.48l-42.61-41.62q-2.35-0.41-4.73-0.61q-2.38-0.2-4.77-0.2q-2.39 0-4.77 0.2q-2.38 0.2-4.73 0.61c-15.16 2.24-31.68 1.86-27.33-7.45c3.85-8.2 22.85-7.08 39 0.25l-13.79-13.42c-4.96-3.48-11.92-8.32-20.74-11.43c-20.25-7.2-38.26-18.01-29.57-26.09c8.7-8.2 39.63 11.18 55.16 35.53l7.08 6.83c-11.55-17.64-16.89-43.85-8.7-49.69c1.12-0.74 2.12-0.99 2.99-0.99c5.71 0 7.2 15.28 6.7 29.81z" /></clipPath><linearGradient id="P" gradientUnits="userSpaceOnUse"/><linearGradient id="g1" x1="-7446.9" y1="22326.6" x2="24125.1" y2="3937.5" href="#P"><stop stop-color="#ffb218"/><stop offset="100" stop-color="#ffcf44"/></linearGradient><clipPath clipPathUnits="userSpaceOnUse" id="cp3"><path d="m718 426.5h-707.22v-26.09h707.22z" /></clipPath><clipPath clipPathUnits="userSpaceOnUse" id="cp4"><path d="m718 426.5h-723v-506.22h723z" /></clipPath><clipPath clipPathUnits="userSpaceOnUse" id="cp5"><path d="m718 426.5h-723v-506.22h723z" /></clipPath><clipPath clipPathUnits="userSpaceOnUse" id="cp6"><path d="m718 426.5h-723v-506.22h723z" /></clipPath><clipPath clipPathUnits="userSpaceOnUse" id="cp7"><path d="m718 426.5h-723v-506.22h723z" /></clipPath><clipPath clipPathUnits="userSpaceOnUse" id="cp8"><path d="m718 426.5h-723v-506.22h723z" /></clipPath><clipPath clipPathUnits="userSpaceOnUse" id="cp9"><path d="m718 426.5h-723v-506.22h723z" /></clipPath><clipPath clipPathUnits="userSpaceOnUse" id="cp10"><path d="m718 426.5h-723v-506.22h723z" /></clipPath><clipPath clipPathUnits="userSpaceOnUse" id="cp11"><path d="m718 426.5h-723v-506.22h723z" /></clipPath><clipPath clipPathUnits="userSpaceOnUse" id="cp12"><path d="m718 426.5h-723v-506.22h723z" /></clipPath><clipPath clipPathUnits="userSpaceOnUse" id="cp13"><path d="m718 426.5h-723v-506.22h723z" /></clipPath><clipPath clipPathUnits="userSpaceOnUse" id="cp14"><path d="m718 426.5h-723v-506.22h723z" /></clipPath><clipPath clipPathUnits="userSpaceOnUse" id="cp15"><path d="m718 426.5h-723v-506.22h723z" /></clipPath><clipPath clipPathUnits="userSpaceOnUse" id="cp16"><path d="m718 426.5h-723v-506.22h723z" /></clipPath><clipPath clipPathUnits="userSpaceOnUse" id="cp17"><path d="m718 426.5h-723v-506.22h723z" /></clipPath><clipPath clipPathUnits="userSpaceOnUse" id="cp18"><path d="m718 426.5h-723v-506.22h723z" /></clipPath><clipPath clipPathUnits="userSpaceOnUse" id="cp19"><path d="m718 426.5h-723v-506.22h723z" /></clipPath><clipPath clipPathUnits="userSpaceOnUse" id="cp20"><path d="m718 426.5h-723v-506.22h723z" /></clipPath><clipPath clipPathUnits="userSpaceOnUse" id="cp21"><path d="m718 426.5h-723v-506.22h723z" /></clipPath><clipPath clipPathUnits="userSpaceOnUse" id="cp22"><path d="m718 426.5h-723v-506.22h723z" /></clipPath><clipPath clipPathUnits="userSpaceOnUse" id="cp23"><path d="m718 426.5h-723v-506.22h723z" /></clipPath><clipPath clipPathUnits="userSpaceOnUse" id="cp24"><path d="m718 426.5h-723v-506.22h723z" /></clipPath><clipPath clipPathUnits="userSpaceOnUse" id="cp25"><path d="m718 426.5h-723v-506.22h723z" /></clipPath><clipPath clipPathUnits="userSpaceOnUse" id="cp26"><path d="m718 426.5h-723v-506.22h723z" /></clipPath><clipPath clipPathUnits="userSpaceOnUse" id="cp27"><path d="m718 426.5h-723v-506.22h723z" /></clipPath><clipPath clipPathUnits="userSpaceOnUse" id="cp28"><path d="m718 426.5h-723v-506.22h723z" /></clipPath><clipPath clipPathUnits="userSpaceOnUse" id="cp29"><path d="m718 426.5h-723v-506.22h723z" /></clipPath><clipPath clipPathUnits="userSpaceOnUse" id="cp30"><path d="m718 426.5h-723v-506.22h723z" /></clipPath><clipPath clipPathUnits="userSpaceOnUse" id="cp31"><path d="m718 426.5h-723v-506.22h723z" /></clipPath><clipPath clipPathUnits="userSpaceOnUse" id="cp32"><path d="m718 426.5h-723v-506.22h723z" /></clipPath><clipPath clipPathUnits="userSpaceOnUse" id="cp33"><path d="m718 426.5h-723v-506.22h723z" /></clipPath><clipPath clipPathUnits="userSpaceOnUse" id="cp34"><path d="m718 426.5h-723v-506.22h723z" /></clipPath><clipPath clipPathUnits="userSpaceOnUse" id="cp35"><path d="m718 426.5h-723v-506.22h723z" /></clipPath><clipPath clipPathUnits="userSpaceOnUse" id="cp36"><path d="m718 426.5h-723v-506.22h723z" /></clipPath><clipPath clipPathUnits="userSpaceOnUse" id="cp37"><path d="m718 426.5h-723v-506.22h723z" /></clipPath><clipPath clipPathUnits="userSpaceOnUse" id="cp38"><path d="m250.91 62.27c9.69 0.49 26.83 1.86 36.02 6.58c18.89 9.69 18.64 27.21 17.27 40.62l-8.7 46.96c0 0-4.72 5.84-29.81 1.24c-19.75-3.6-38.01-14.03-38.01-14.03c0 0-7.46-41.37-5.72-55.91c1.87-14.78 7.83-25.59 26.46-25.59h2.49" /></clipPath><clipPath clipPathUnits="userSpaceOnUse" id="cp39"><path d="m244.32 83.88l-1.49 34.04c-0.49 18.26 1.62 25.34 1.62 25.34c0 0-18.26 17.64-24.1 12.92c-7.83-6.21-9.07-29.81-7.7-45.71c1.61-19.51 9.44-45.97 27.33-47.08c1.11-0.13 4.72 5.59 4.34 20.49z" /></clipPath></defs><style>.s0{fill:#fff4dd}.s1{fill:#619440}.s2{fill:#496b32}.s3{fill:#306b34}.s4{fill:url(#g1)}.s5{fill:#f7e8c8}.s6{fill:#a29c8f}.s7{fill:#57575e}.s8{fill:#ffaf12}.s9{fill:#7f786a}.s10{fill:#ffb68e}.s11{fill:#ffa087}.s12{fill:#fcbd30}.s13{fill:#fb8875}.s14{fill:#f4dcbd}.s15{fill:#fff0d2}</style><g clip-path="url(#cp1)"><path fill-rule="evenodd" class="s0" d="m253 86.6q15.1-10.6 31.2-19.7q16.1-9.2 33-16.6q16.9-7.5 34.5-13.3q17.6-5.8 35.6-9.9q8.8-2 17.8-3.4q8.9-1.5 17.9-2.5q9-0.9 18.1-1.4q9-0.5 18.1-0.5c10.4 0 21.5-1 31.8 0.4c10.8 1.5 21.2 9.7 31.4 15c12.5 6.3 24.9 14 36 25c5 5.1 9.5 10.6 13.5 16.5c4 5.9 7.5 12.1 10.4 18.6c2.9 6.5 5.2 13.3 6.8 20.2c1.7 6.9 2.8 14 3.2 21.1c1.8 31.4-12.1 65.5-33 70.7c-3.9 1-8.3 1.2-11 5.6c-4.5 7.4 0 19.9 6.2 24.1c6 4.3 13.2 4.1 19.3 8.4c12.3 8.8 16 34.4 10.8 53.3q-1.9 6.2-4.6 12.1q-2.8 5.9-6.5 11.3q-3.6 5.4-8 10.2q-4.4 4.7-9.5 8.8c-56.5 48.5-125.5 46-190.6 42.1c-3-0.1-6.4-0.4-8.9-3.3c-2.5-2.8-3.3-9.2-0.8-12c-99.1-0.3-196.5 68.1-294.6 46.8c-12.8-2.8-27.6-9.6-32-27.9c-4-16.9 3-35 10.3-49c45.8-86.9 118.2-131.6 188.8-164.4q2.5-0.9 4.9-2.2q2.4-1.3 4.6-2.8q2.2-1.6 4.2-3.4q2-1.9 3.7-4c4.8-6.6 7.3-18 4-26.3c-2.9-6.8-8.9-10-11-17.4c-3.7-12.6 6-24.4 14.4-30.2z" /></g><path fill-rule="evenodd" class="s1" d="m65.7 206.9c0.4-12-7.6-23.5-5-35.3c1.8-7.6 8.1-12 15.2-9.6c9.1 3 12.8 12.5 16 21.2q0.7 2.3 1.6 4.5q1 2.2 2.2 4.2q1.2 2.1 2.6 4q1.5 1.9 3.1 3.6c4 3.9 8.8 6.7 13.2 10.1q2.7 2.2 5 4.8q2.3 2.6 4.1 5.6q1.8 3 3 6.2q1.3 3.3 1.9 6.7c2.6 10.9 2.9 23.8 11.6 31.6c7.1 6.3 17.8 8.4 22 18.2c4.6 10.7-2.5 26.8 8 34.1c4.5 3.1 9.5 4.3 13.5 8.3q1.2 1.2 2.2 2.5q1.1 1.2 2 2.6q0.9 1.4 1.7 2.9q0.8 1.5 1.4 3c3.7 9 3.7 19.2-0.6 27.8c-0.2 0.3-0.4 0.6-0.7 0.7c-3.2 9-7.1 18.2-14.5 24c-6.4 5.2-15.3 7.2-22.7 2.8c-12.7-7.5-14.3-26-23.4-37c-3.2-3.8-7-6-12-6.2c-5.2-0.4-10.5 1.2-15.7-0.6c-7.6-2.6-11.8-10.5-13.7-18.3c-3-12 0-25.2-5.3-36.6c-4.7-10.2-15-15.7-20-25.6c-9.8-19.1 2.6-40.6 3.3-60.2z" /><path fill-rule="evenodd" class="s2" d="m78.8 186.1c1.8 14.4 8.5 27.5 14.7 40.4c6.1 12.7 12.2 25.5 18.5 38.1q4.6 9.4 9.5 18.8q4.9 9.3 10 18.4q5.1 9.2 10.5 18.2q5.4 9 11.1 17.9c8.6 13 17.8 25.7 27.8 37.8c1 1.2-0.7 3-1.8 1.7c-18-21.6-33.4-45.3-47.2-69.8c-14-24.8-26.5-50.5-38.8-76.2c-7-14.5-14.7-29.1-16.8-45.3c-0.2-1.6 2.3-1.6 2.5 0z" /><path fill-rule="evenodd" class="s2" d="m160.3 351.5c0-13.5 0.2-27.1 0.6-40.7c0-1.6 2.6-1.6 2.5 0c-0.4 13.6-0.6 27.2-0.6 40.7c0 1.6-2.5 1.6-2.5 0zm-14.3-19.5c-3.8-1.3-7.7-1.3-11.7-1.4q-3.1-0.1-6.3-0.2q-3.1-0.2-6.2-0.5q-3.1-0.3-6.2-0.7q-3.1-0.5-6.2-1c-3.8-0.7-7.6-1.6-11.1-3.4c-1.4-0.7-0.2-2.9 1.2-2.1q1.3 0.6 2.7 1.1q1.4 0.5 2.8 0.9q1.4 0.4 2.9 0.7q1.4 0.3 2.9 0.5q3 0.5 6.1 0.9q3 0.4 6.1 0.7q3 0.3 6.1 0.4q3 0.2 6.1 0.2c3.9 0.1 7.8 0.2 11.4 1.5c1.5 0.5 0.9 3-0.6 2.4zm-19.1-33.8c-1.4-4.3-1.3-8.8-1.2-13.3q0.1-5.4 0-10.8q-0.1-5.3-0.3-10.7q-0.2-5.4-0.6-10.8q-0.4-5.3-0.9-10.7c-0.2-1.5 2.3-1.5 2.5 0q0.5 5.2 0.9 10.5q0.3 5.2 0.6 10.5q0.2 5.2 0.3 10.5q0.1 5.2 0 10.5c0 4.6-0.3 9.2 1.1 13.6c0.5 1.6-2 2.2-2.4 0.7zm-16.4-32c-13.6-1.2-26.8-5-39-11c-1.5-0.8-0.3-3 1.2-2.2q4.4 2.2 9 4q4.7 1.7 9.4 3.1q4.8 1.4 9.6 2.3q4.9 0.9 9.8 1.4c1.6 0.1 1.6 2.6 0 2.5zm-18.6-37.9q0.9-3.2 1.5-6.4q0.6-3.3 0.9-6.6q0.3-3.3 0.2-6.6q0-3.3-0.3-6.6c-0.2-1.6 2.3-1.6 2.5 0c0.9 9 0 18.2-2.4 26.9c-0.4 1.5-2.8 0.9-2.4-0.7z" /><path fill-rule="evenodd" class="s3" d="m114.1 258.2c10.6-7.1 36 13.2 48.8 36.8l-11-37q-2.5-2.5-5.3-4.7q-2.7-2.2-5.7-4.2q-2.9-2-6-3.6q-3.1-1.7-6.4-3.1c-18.3-8.1-36.5-20.2-25.9-27.3c10-6.6 32.9 10.8 46.3 32.5l-14-47.4c-2.9-2.6-7.1-5.7-13.3-8.4c-11.5-5.1-23-12.8-16.4-17.2c5.8-3.9 18.7 5.3 27.2 17.5l-4.5-15.4c-2.2-4.5-5.2-11-10.2-17c-11.5-13.9-20-29.3-10.8-31c9.2-1.6 23.5 25.2 25.1 48.8l2.4 8c-1.5-17.2 4.8-37.6 12.7-37.9c8-0.3 2.6 12.8-4.1 23.9q-1.4 2.1-2.5 4.4q-1.2 2.3-2.1 4.6q-0.9 2.4-1.5 4.8q-0.7 2.5-1.1 5l11.2 37.4c-2.3-27.2 7.7-59.4 20.3-59.8c12.5-0.5 4 20.3-6.7 37.9q-2.2 3.4-4 6.9q-1.8 3.6-3.2 7.4q-1.4 3.7-2.4 7.6q-1.1 3.8-1.7 7.8l13.3 44.8c-1.8-26.9 8-58.8 20.4-58.2c9.5 0.4 6.1 14.8-5.8 34.6q-2.3 3.7-4.2 7.6q-1.9 3.9-3.4 8q-1.5 4.1-2.6 8.3q-1.1 4.2-1.8 8.5l6.3 21.1q-1.8 1.3-3.6 1.2l-2.5-8.4q-2.7-2.8-5.6-5.4q-3-2.5-6.2-4.7q-3.2-2.2-6.6-4.1q-3.4-1.8-7-3.3c-18.3-8-36.5-20.2-26-27.2" /><g clip-path="url(#cp2)"><path fill-rule="evenodd" class="s4" d="m65.1 276.4c-0.5 12.7 1.8 21.2 3.3 25.3l33.7 32.9c-18.4-28-26.7-69.6-13.7-78.5c13.1-9.1 16.2 19.1 15.3 45.4q-0.3 5.1-0.1 10.1q0.2 5.1 0.9 10.1q0.6 5 1.8 9.9q1.2 4.9 2.9 9.7l40.2 39.5c-17.6-27.8-26.1-69.1-12.5-76.9c10.3-6 15.1 11.8 14.1 41.5q-0.2 5.5 0.1 10.9q0.3 5.5 1.1 10.9q0.8 5.5 2.1 10.8q1.3 5.3 3.1 10.5l19 18.6q-0.3 0.6-0.6 1.1q-0.3 0.5-0.7 1q-0.4 0.5-0.9 0.9q-0.4 0.4-0.9 0.7l-7.5-7.4q-4.5-1.3-9.1-2q-4.6-0.8-9.3-1q-4.7-0.2-9.3 0.1q-4.7 0.3-9.3 1.2c-24.1 3.7-50.4 3.1-43.5-11.8c7.1-15 45.7-10.2 73.3 6.5l-33.3-32.5q-4.2-1-8.4-1.5q-4.3-0.6-8.6-0.7q-4.2-0.1-8.5 0.2q-4.3 0.4-8.5 1.1c-24 3.7-50.3 3.1-43.4-11.8c6.6-13.9 41-10.8 68 3.5l-42.6-41.6q-2.4-0.4-4.8-0.6q-2.4-0.2-4.7-0.2q-2.4 0-4.8 0.2q-2.4 0.2-4.7 0.6c-15.2 2.2-31.7 1.8-27.4-7.5c3.9-8.2 22.9-7.1 39 0.3l-13.8-13.4c-4.9-3.5-11.9-8.4-20.7-11.5c-20.3-7.2-38.3-18-29.6-26.1c8.7-8.2 39.7 11.2 55.2 35.6l7.1 6.8c-11.6-17.6-16.9-43.8-8.7-49.7c1.1-0.7 2.1-1 3-1c5.7 0 7.2 15.3 6.7 29.8z" /></g><g clip-path="url(#cp3)"><path fill-rule="evenodd" class="s5" d="m364.3 400.4c195.3 0 353.7 5.9 353.7 13.1c0 7.2-158.3 13-353.7 13c-195.4 0-353.5-5.8-353.5-13c0-7.2 158.2-13.1 353.5-13.1z" /></g><g clip-path="url(#cp4)"><path fill-rule="evenodd" class="s6" d="m261.3 376.9h-13v-106.8h13z" /></g><g clip-path="url(#cp5)"><path fill-rule="evenodd" class="s7" d="m243.2 334.8c0-4.7 3.7-8.4 8.5-8.4h5.5c4.6 0 8.4 3.7 8.4 8.3v42.2h-22.4zm-55.6-74.8q-0.1 0-0.1-0.1h-0.2zm7-1.3c-9.5-63.1-14.9-127.1-28.4-190.1l-8.8 1.2c-4.5 0.7-7.4 5-6.4 9.5c13.9 60.2 26.1 120.2 36.6 180.6z" /></g><g clip-path="url(#cp6)"><path fill-rule="evenodd" class="s6" d="m186.1 210.6q-3.8-22.3-8-44.6q-4.1-22.3-8.6-44.5q-4.5-22.2-9.3-44.3c-1-4.1 1.9-8.1 6-8.7c34.5-4.4 49.3-4.5 86.6-1.3q1.7 0.2 3.3 0.8q1.6 0.6 3 1.7q1.4 1.1 2.3 2.5q1 1.5 1.6 3.1c18.5 57.5 19.5 121.6 14.9 179.8q-10.5-1.6-21.1-2.4q-10.6-0.7-21.2-0.7q-10.6 0-21.2 0.9q-10.5 0.8-21 2.4q-3.5-22.4-7.3-44.7z" /></g><g clip-path="url(#cp7)"><path fill-rule="evenodd" class="s6" d="m275.6 240c24.5 0 59.8 1 77.9 1.5c6.9 0.3 12.3 6.2 12.4 13.7c0.3 7.6-4.9 13.9-11.8 14.5c-15.9 1.3-45.6 3.3-78.5 3.3c-36.2 0-78.4-3.5-82.5-6.9c-4.2-3.2-6-7.2-6-9.7c0-8.9 39.6-16.4 88.5-16.4z" /></g><g clip-path="url(#cp8)"><path fill-rule="evenodd" class="s7" d="m186.8 253.2c-0.5-5.3 4-9.9 9.4-9.9c17.9 0.3 54.3 0.8 67.9 1.2c3.1 0.2 6.1 1.6 8.3 3.9c2.2 2.3 3.5 5.4 3.6 8.6c0 3.1-1.1 6.2-3.2 8.6c-2 2.4-4.9 4-8.1 4.4c-12.4 1-51.8-2-68.9-3.3q-1.7-0.1-3.3-0.8q-1.5-0.7-2.7-1.9q-1.2-1.2-1.9-2.7q-0.7-1.6-0.8-3.3zm123.7 142.8l-8.2-14.7h-95.5l-9.1 14.8c-0.4 0.5-0.9 0.8-1.5 0.9c-0.6 0.1-1.2 0-1.7-0.3c-0.5-0.3-0.9-0.8-1.1-1.4c-0.2-0.5-0.1-1.1 0.1-1.7l9.9-15.9q0.2-0.3 0.4-0.5q0.2-0.2 0.5-0.4q0.3-0.1 0.6-0.2q0.3-0.1 0.6-0.1h98.2c0.9 0 1.7 0.5 2.2 1.2l8.8 15.8q0.3 0.6 0.3 1.2q0 0.7-0.3 1.3q-0.3 0.5-0.9 0.9q-0.5 0.3-1.2 0.3c-0.9 0-1.7-0.3-2.1-1.2z" /></g><g clip-path="url(#cp9)"><path fill-rule="evenodd" class="s7" d="m228.9 397.3q0 0 0 0q-0.1 0-0.1 0m0.1 0q-0.6 0-1.1-0.2q-0.5-0.3-0.9-0.7q-0.4-0.5-0.5-1.1q-0.1-0.5 0-1.1l4.4-15.9q0.1-0.4 0.3-0.8q0.3-0.3 0.6-0.6q0.3-0.2 0.7-0.3q0.4-0.2 0.9-0.2h43.4q0.5 0 0.8 0.2q0.4 0.1 0.7 0.4q0.4 0.2 0.6 0.6q0.2 0.3 0.3 0.7l4 15.9c0.3 0.7 0.3 1.4 0 2.1c-0.3 0.7-0.9 1.2-1.6 1.4c-0.7 0.2-1.5 0-2.1-0.4c-0.6-0.4-1-1.1-1-1.9l-3.6-14.1h-39.8l-3.7 14.1q-0.1 0.5-0.4 0.8q-0.2 0.4-0.5 0.6q-0.4 0.3-0.8 0.4q-0.4 0.1-0.7 0.1zm77.8-0.7c1.6-1.6 3.7-2.5 5.9-2.5c2.3 0 4.4 0.9 6 2.5c1.6 1.5 2.5 3.7 2.5 5.9c0 2.3-0.9 4.4-2.5 6c-1.6 1.6-3.7 2.5-6 2.5c-2.2 0-4.3-0.9-5.9-2.5c-1.6-1.6-2.5-3.7-2.5-6c0-2.2 0.9-4.4 2.5-5.9z" /></g><g clip-path="url(#cp10)"><path fill-rule="evenodd" class="s6" d="m308.1 398c1.2-1.3 2.8-1.9 4.5-1.9c1.8 0 3.4 0.6 4.6 1.9c1.2 1.2 1.9 2.8 1.9 4.5c0 1.7-0.7 3.4-1.9 4.6c-1.2 1.2-2.8 1.9-4.6 1.9c-1.7 0-3.3-0.7-4.5-1.9c-1.2-1.2-1.9-2.9-1.9-4.6c0-1.7 0.7-3.3 1.9-4.5z" /></g><g clip-path="url(#cp11)"><path fill-rule="evenodd" class="s7" d="m275.7 396.6c1.6-1.6 3.8-2.5 6-2.5c2.3 0 4.4 0.9 6 2.5c1.6 1.5 2.5 3.7 2.5 5.9c0 2.3-0.9 4.4-2.5 6c-1.6 1.6-3.7 2.5-6 2.5c-2.2 0-4.4-0.9-6-2.5c-1.5-1.6-2.4-3.7-2.4-6c0-2.2 0.9-4.4 2.4-5.9z" /></g><g clip-path="url(#cp12)"><path fill-rule="evenodd" class="s6" d="m277.1 398c1.3-1.3 2.9-1.9 4.6-1.9c1.7 0 3.4 0.6 4.6 1.9c1.2 1.2 1.9 2.8 1.9 4.5c0 1.7-0.7 3.4-1.9 4.6c-1.2 1.2-2.9 1.9-4.6 1.9c-1.7 0-3.3-0.7-4.6-1.9c-1.2-1.2-1.8-2.9-1.8-4.6c0-1.7 0.6-3.3 1.8-4.5z" /></g><g clip-path="url(#cp13)"><path fill-rule="evenodd" class="s7" d="m186.1 402.5c0-2.2 0.9-4.4 2.5-5.9c1.6-1.6 3.7-2.5 6-2.5c2.2 0 4.4 0.9 5.9 2.5c1.6 1.5 2.5 3.7 2.5 5.9c0 2.3-0.9 4.4-2.5 6c-1.5 1.6-3.7 2.5-5.9 2.5c-2.3 0-4.4-0.9-6-2.5c-1.6-1.6-2.5-3.7-2.5-6" /></g><g clip-path="url(#cp14)"><path fill-rule="evenodd" class="s6" d="m189.9 398c1.3-1.3 2.9-1.9 4.6-1.9c1.7 0 3.4 0.6 4.6 1.9c1.2 1.2 1.9 2.8 1.9 4.5c0 1.7-0.7 3.4-1.9 4.6c-1.2 1.2-2.9 1.9-4.6 1.9c-1.7 0-3.3-0.7-4.6-1.9c-1.2-1.2-1.9-2.9-1.9-4.6c0-1.7 0.7-3.3 1.9-4.5z" /></g><g clip-path="url(#cp15)"><path fill-rule="evenodd" class="s7" d="m220.4 402.5c0-2.2 0.9-4.4 2.5-5.9c1.6-1.6 3.7-2.5 6-2.5c2.2 0 4.3 0.9 5.9 2.5c1.6 1.5 2.5 3.7 2.5 5.9c0 2.3-0.9 4.4-2.5 6c-1.6 1.6-3.7 2.5-5.9 2.5c-2.3 0-4.4-0.9-6-2.5c-1.6-1.6-2.5-3.7-2.6-6" /></g><g clip-path="url(#cp16)"><path fill-rule="evenodd" class="s6" d="m222.4 402.5c0-1.7 0.7-3.3 1.9-4.5c1.2-1.3 2.8-1.9 4.6-1.9c1.7 0 3.3 0.6 4.5 1.9c1.2 1.2 1.9 2.8 1.9 4.5c0 1.7-0.7 3.4-1.9 4.6c-1.2 1.2-2.8 1.9-4.5 1.9c-1.8 0-3.4-0.7-4.6-1.9c-1.2-1.2-1.9-2.9-2-4.6" /></g><g clip-path="url(#cp17)"><path fill-rule="evenodd" class="s7" d="m206.4 282.9c-0.2-0.9 0.2-1.7 1-2.1c19.2-7.3 43.8-9.5 44-9.5c1-0.1 1.7 0.7 1.9 1.5c0 0.9-0.7 1.8-1.5 1.8c-0.3 0-24.6 2.1-43.3 9.3h-0.5c-0.7 0-1.2-0.4-1.6-1z" /></g><g clip-path="url(#cp18)"><path fill-rule="evenodd" class="s7" d="m202.7 288.1c-1-0.3-1.9-1.1-2.3-2.1c-0.4-0.9-0.3-2 0.1-3c0.5-1 1.3-1.7 2.3-2l10.8-4.3c1.3-0.5 2.5 0 2.9 1.2l1.2 2.8c0.5 1.1-0.1 2.4-1.2 2.8l-10.8 4.4c-0.9 0.5-2 0.6-3 0.2zm91.2-269.2c-9-19.6-35.8-22.2-51.9-2.3c-6.5 7.9-8.7 21.3-14.9 27.5c-4.8 4.8-27.1-8.9-40.4 15.2c-4.2 8.1-9 52.2 45.7 50.9c17-0.2 43.4-21.1 54-33.5c7.2-8.1 17.7-22.4 18.7-37.3c0.8-14.2-11.2-20.6-11.2-20.6z" /></g><g clip-path="url(#cp19)"><path fill-rule="evenodd" class="s6" d="m242 16.3c2.9-4.2 6.9-7.8 11.6-10.4c4.6-2.6 10-4.3 15.3-4.3c2.8 0 5.5 0.3 8.2 1.1c2.6 0.7 5.1 1.8 7.5 3.3c2.3 1.4 4.4 3.2 6.2 5.3c1.8 2.1 3.3 4.4 4.5 6.9l-0.7-0.7c5.1 3.2 9 8 10.7 13.7q0.6 2.1 0.8 4.3q0.2 2.2 0.1 4.4q-0.1 2.2-0.5 4.3q-0.4 2.2-1.1 4.3q-1.4 4-3.3 7.8q-1.8 3.8-4.1 7.4q-2.3 3.5-4.9 6.8q-2.7 3.3-5.7 6.3q2.6-3.2 4.9-6.6q2.4-3.5 4.4-7.1q1.9-3.6 3.6-7.5q1.6-3.8 2.8-7.7c1.4-5.4 2.1-11 0.5-15.9q-0.6-1.9-1.5-3.6q-1-1.7-2.2-3.2q-1.2-1.6-2.7-2.9q-1.5-1.3-3.1-2.3l-0.5-0.2l-0.3-0.4c-1-2.3-2.3-4.4-3.9-6.3c-1.6-2-3.5-3.6-5.5-5c-2.1-1.4-4.4-2.4-6.8-3.2c-2.4-0.7-4.9-1-7.4-1q-1.9-0.1-3.8 0.1q-1.9 0.2-3.7 0.6q-1.9 0.4-3.6 1q-1.8 0.7-3.5 1.5c-4.8 2.2-8.9 5.6-12.3 9.5" /></g><g clip-path="url(#cp20)"><path fill-rule="evenodd" class="s8" d="m370.7 173.2c-13.5 10.6-50.6 3.7-72.5-22c-7-8.4-8.2-17.4-3.9-24c6.4-10.1 21.5-0.8 31.9 3.8c20.9 9.7 47.2 31.4 47.2 31.4c0 0-2.1 10.3-2.7 10.8z" /></g><g clip-path="url(#cp21)"><path fill-rule="evenodd" class="s6" d="m375.1 202.6h21.6v210h-9.1z" /></g><g clip-path="url(#cp22)"><path fill-rule="evenodd" class="s9" d="m371.8 201.8h3.2l12.6 210.8h-3.3z" /></g><g clip-path="url(#cp23)"><path fill-rule="evenodd" class="s6" d="m409.3 202.6h21.9v210h-9.4z" /></g><g clip-path="url(#cp24)"><path fill-rule="evenodd" class="s9" d="m406.1 201.8h3.3l12.4 210.8h-3.2z" /></g><g clip-path="url(#cp25)"><path fill-rule="evenodd" class="s9" d="m371.2 204.4l97.7-0.9v184.1h-85.3z" /></g><g clip-path="url(#cp26)"><path fill-rule="evenodd" class="s6" d="m505.6 201.8h21.6l-12.6 210.8h-9.2z" /></g><g clip-path="url(#cp27)"><path fill-rule="evenodd" class="s9" d="m505.4 412.6h-3.3v-210.8h3.5z" /></g><g clip-path="url(#cp28)"><path fill-rule="evenodd" class="s6" d="m411.5 204.4l94.2-0.9v184.1h-85.5z" /></g><g clip-path="url(#cp29)"><path fill-rule="evenodd" class="s10" d="m285.7 142.9c7.7 8.3 16.6 33.3 16.6 33.3c0 0 21.8 5 36.6 11c29.3 12.2 59 24.8 55.4 54.8c-3.8 31.1-51 101.1-76.3 139.7q-1.9 2.8-3.9 5.6q-2 2.8-4.2 5.4q-2.2 2.6-4.5 5.2q-2.3 2.5-4.8 4.9l-2.2-3.9c0 0 25.6-84.1 29.8-112c2.8-19.2 11.7-42.9 11.7-42.9l-76.4-23.1l-10.9-67.7c0 0 28.1-8.1 33.1-10.3z" /></g><g clip-path="url(#cp30)"><path fill-rule="evenodd" class="s9" d="m279.4 399.9c0 0-1.8 13.3-4.6 18.4c0 0-5.6 4-8.1 3.7c-2.3-0.2-5-9.4-4-11.2c3.5-5.2 11.9-13 11.9-13z" /></g><g clip-path="url(#cp31)"><path fill-rule="evenodd" class="s11" d="m282.5 393c0 0-2.3 4.4-3 6.4c-1.5 4.2-3.4 10.7-4.6 12.3c-1.5 1.9-2.3 2.3-3 2.1c-1.6-0.3-3.8-3.1-3.7-5.2q0.7-1.5 1.5-3q0.8-1.5 1.7-3q0.8-1.4 1.8-2.8q1-1.4 2.1-2.7c2.8-3.8 4.3-7.7 4.3-7.7l2.9 3.7z" /></g><g clip-path="url(#cp32)"><path fill-rule="evenodd" class="s9" d="m298.9 405c0 0-5.4 12.2-9.6 16.3c0 0-6.5 2.2-8.8 1.2c-2.1-0.7-2.1-10.4-0.6-11.7c4.7-4.1 15.1-9.1 15.1-9.1z" /></g><g clip-path="url(#cp33)"><path fill-rule="evenodd" class="s10" d="m303.8 399.2c0 0-3.5 3.7-4.6 5.4c-2.6 3.6-6.3 9.2-8 10.3c-1.9 1.5-2.7 1.7-3.4 1.3c-1.5-0.8-2.9-4-2-6c0.4-1 5.2-5.6 10-9c3.7-2.9 6.2-6.3 6.2-6.3l1.8 4.4z" /></g><g clip-path="url(#cp34)"><path fill-rule="evenodd" class="s11" d="m265.3 149.1l7 43.5c0 0 85.2 1.6 90.9 48.8c3.6 29.6-81.6 153.5-81.6 153.5l-3.7-1.9c0 0 2.7-80.3 11.6-105.1c12.2-33.6 18.7-40.3 20.2-40.3c0 0-101 6.2-105.3-40.1c-1.4-16.7 14.6-53.8 20.2-63.4c15.9 1.9 31.2 4.5 40.7 5z" /></g><g clip-path="url(#cp35)"><path fill-rule="evenodd" class="s9" d="m287.6 144c0 0 12.6 17.9 16.1 31.6c0 0 44.7 11.1 71.7 29.8l2.7 2c0 0-27.7 7.9-54.4 24.4c-20.6 12.7-29.4 20.2-34.5 19.9c-15.6-1.1-50.5-1.9-73.1-16.6c-39.5-25.9 9.6-91 9.6-91h61.9z" /></g><g clip-path="url(#cp36)"><path fill-rule="evenodd" class="s9" d="m349.8 217.8q-3.2 2-6.4 3.8q-3.2 1.9-6.4 3.6q-3.3 1.8-6.6 3.4q-3.3 1.7-6.7 3.2c-20.6 12.7-29.4 20.2-34.5 19.9c-15.6-1.1-54.4-1.1-77.1-15.9c-39.5-25.8 13.6-91.7 13.6-91.7h37.3l5.9 41.6l38.8 10.4c25.1 6.4 42.2 21.7 42.2 21.7" /></g><g clip-path="url(#cp37)"><path fill-rule="evenodd" class="s8" d="m315.6 163.5c-29-5-36.7-96.5-36.7-96.5c18.2 1.1 31 18 36.4 37.9c4.1 15.3 11.9 38.2 11.9 38.2c0 0-1.4 22.2-11.7 20.4" /></g><g clip-path="url(#cp38)"><path fill-rule="evenodd" class="s8" d="m250.9 62.3c9.7 0.5 26.8 1.8 36 6.6c18.9 9.6 18.7 27.2 17.3 40.6l-8.7 46.9c0 0-4.7 5.9-29.8 1.3c-19.8-3.6-38-14.1-38-14.1c0 0-7.5-41.3-5.7-55.9c1.8-14.7 7.8-25.6 26.4-25.6h2.5" /></g><path fill-rule="evenodd" class="s10" d="m273.1 67.2c-1.8-0.2-3.2-2-2.8-3.9l1.6-11.2c0.2-0.8 0.7-1.5 1.5-2c0.7-0.5 1.5-0.7 2.4-0.5c0.8 0.1 1.6 0.5 2.1 1.2c0.6 0.6 0.9 1.4 0.8 2.3l-1.6 11.2c-0.2 1.9-2 3.2-3.8 2.9" /><path fill-rule="evenodd" class="s11" d="m278.1 57.9c0 0-1 1.3-2.5 2.6c-2.3 2.3-5.3 2.5-5.2 1l1.3-7.7c0.5-2.8 2.2-4.9 4.2-4.7c1.8 0.2 3.1 2.9 2.6 5.8z" /><path fill-rule="evenodd" class="s11" d="m267.3 36.2c0.6 0 1.1 0.4 1.5 1l1.1-3.1c0.3-0.9 0.6-1.8 1.1-2.5q0.7-1.3 1.7-2.3q0.9-1.1 2.1-1.9q1.1-0.8 2.5-1.3q1.3-0.5 2.7-0.7h0.2q0.3 0 0.5-0.1q0.3 0 0.5 0q0.3 0 0.5 0q0.3 0.1 0.5 0.1h0.5q0.3 0 0.5 0q0.3 0 0.5 0.1q0.3 0 0.5 0q0.3 0.1 0.5 0.1h0.1h0.1l0.9 0.4c1.5 0.5 2.8 1.4 4 2.4c1.2 1.1 2.1 2.4 2.8 3.8c0.7 1.4 1.1 3 1.2 4.5c0.1 1.6-0.1 3.2-0.5 4.7l-0.9 3.1q0.9-0.4 1.9 0c1.2 0.9 1 3.1-0.3 5c-1.2 1.7-2.8 2.7-4.1 2.3v0.2c-2.3 4.1-6.2 5.4-9.9 6.7q-0.6 0.2-1.2 0.3q-0.7 0.1-1.3 0.1q-0.6 0-1.3-0.1q-0.6-0.1-1.2-0.3q-0.6-0.2-1.2-0.5q-0.5-0.3-1-0.6q-0.5-0.4-1-0.8q-0.4-0.5-0.8-1c-2.5-3.1-4.8-6.5-4.3-11.2v-0.1l-1.1-0.7c-0.7-0.9-1-2.2-0.9-3.5c0-2.4 1.2-4.2 2.5-4.1" /><path fill-rule="evenodd" class="s12" d="m265.1 43.1c-4.9-0.2-7.5 6.9-2.5 9c5.1 2.1 8.6-5.5 4-8.5c-0.8-0.5 0.1-1 0.7-0.6c2.5 1.6 3.7 4.9 2.1 7.5c-1.2 2.5-4.2 3.3-6.8 2.5c-6.2-2.2-4.5-11.2 2.1-10.9c0.6 0 1.2 1 0.4 1z" /><path fill-rule="evenodd" class="s10" d="m282.3 42.8c3.8-11.5 2.3-17.2 2.5-17.2h0.1l0.9 0.4c1.5 0.5 2.8 1.4 4 2.4c1.2 1.1 2.1 2.4 2.8 3.8c0.7 1.4 1.1 3 1.2 4.5c0.1 1.6-0.1 3.2-0.5 4.7l-0.9 3.1q0.9-0.4 1.9 0c1.1 0.9 1 2.9 0 4.7c-1 1.9-1.3 2.1-3.1 2.5l-0.3 0.1h-1v0.2c-2.3 4.1-6.2 5.4-9.9 6.7q-0.6 0.2-1.2 0.3q-0.7 0.1-1.3 0.1q-0.6 0-1.3-0.1q-0.6-0.1-1.2-0.3c-0.9-0.4 3.2-2.9 7.5-15.9" /><path fill-rule="evenodd" class="s11" d="m265.6 43.8c0 0-1-1-0.9-2.9c0-1.9 1.4 1.7 0.9 2.9z" /><g clip-path="url(#cp39)"><path fill-rule="evenodd" class="s8" d="m244.3 83.9l-1.5 34c-0.5 18.3 1.6 25.4 1.6 25.4c0 0-18.2 17.6-24.1 12.9c-7.8-6.2-9-29.8-7.7-45.7c1.7-19.5 9.5-46 27.4-47.1c1.1-0.1 4.7 5.6 4.3 20.5z" /></g><path fill-rule="evenodd" class="s13" d="m403.6 172.2c-0.6-0.6-0.4-1.7 0.4-2.5c1.2-1 2.4-1 3.7-0.5c1.6 0.8 6.2 3.6 6.2 3.6c0 0-0.9 2.6-1.6 3.1c-0.9 0.8-3.9 1.5-3.9 1.5z" /><path fill-rule="evenodd" class="s13" d="m412.4 181.2c-0.9 0.3-2 0-2.5-0.9l-2.5-4.4l1.8-1l3.3 6.3zm-9-10.2c0.1-0.5 1.8 0.2 1.8 0.2l1.3 4.7c0.2 1.2-0.4 2.1-1.5 2.5c0 0-2.1-5.8-1.6-7.4zm12.8 11c-1 0.5-2.3 0.3-3-0.8l-3.1-4.8l1.6-1z" /><path fill-rule="evenodd" class="s13" d="m417.1 180.9c-0.8 0.6-2.1 0.3-2.8-0.9l-3.1-4.7l1.7-1.1z" /><path fill-rule="evenodd" class="s13" d="m418.2 178.4c-0.8 0.6-2.1 0.4-2.9-0.6l-3.5-4.3c0 0 1.2-0.9 1.8-0.8c1.3 0.4 4.6 5.7 4.6 5.7z" /><path fill-rule="evenodd" class="s12" d="m285.6 56.2q-0.2 0.1-0.3 0.1q-0.1 0.1-0.2 0.2q-0.2 0.1-0.3 0.1q-0.1 0.1-0.2 0.2c0.6 2.9 3.2 5.1 6.6 4.1c4.7-1.6 4.6-8.1 0.6-10.4c-0.6-0.4-1.4 0.2-0.6 0.6c3.1 1.7 3.1 5.6 0.6 7.9q-0.5 0.5-1.2 0.8q-0.6 0.2-1.3 0.2q-0.7 0.1-1.3-0.2q-0.7-0.2-1.2-0.6q-0.3-0.3-0.5-0.7q-0.2-0.3-0.4-0.7q-0.1-0.4-0.2-0.8q0-0.4 0-0.8" /><path fill-rule="evenodd" class="s7" d="m287.3 24.4c3.7 1.5 10.2 4.2 8.1 14.6l-1.1 3.8l-17.7-5l1.5-7.8l-3.3 7.4l-6.5-1.8c0 0 5.7-16.7 19-11.2z" /><path fill-rule="evenodd" class="s8" d="m286.9 176.2c-12 4.6-29.5 2-48.5-5.4c-8.5-3.2-22.4-13.4-24.9-29.5c-2-11.8 12.4-10 21.5-8c14.5 3.3 58.3 29.8 58.3 29.8c0 0-2.9 11.8-6.2 13.2" /><path fill-rule="evenodd" class="s6" d="m212.5 201.8h21.8l-12.5 210.8h-9.3z" /><path fill-rule="evenodd" class="s7" d="m212.5 412.6h-3.2v-210.8h3.1z" /><path fill-rule="evenodd" class="s6" d="m135.6 202.6h21.8v210h-9.2z" /><path fill-rule="evenodd" class="s7" d="m132.4 201.8h3.2l12.6 210.8h-3.3z" /><path fill-rule="evenodd" class="s7" d="m212.5 412.6h-65.9v-12.2h65.8zm-90.9-206.2h333.4v-15.3h-345.7z" /><path fill-rule="evenodd" class="s7" d="m191.3 191.2h356.1l-8.3 15.2h-337.4z" /><path fill-rule="evenodd" class="s7" d="m289 188v-5.4c0-1.3 1.3-2.4 2.5-2.4l94.1 1.6l-27.4 9.9l-66.8-1.2c-1.4 0-2.4-1.3-2.4-2.5z" /><path fill-rule="evenodd" class="s7" d="m359.4 191.2l-10.4-0.1l21.8-112.7c0.4-2.5 2.8-4.3 5.3-4.3l11.8 0.2l-28.5 116.8z" /><path fill-rule="evenodd" class="s6" d="m380 78.3q0.1-0.9 0.6-1.7q0.5-0.7 1.2-1.3q0.7-0.6 1.5-0.9q0.9-0.2 1.8-0.2l140.5 2.5q1.2 0 2.3 0.6q1.1 0.5 1.9 1.5q0.7 1 1 2.2q0.3 1.2 0 2.4l-27 104.3c-0.6 2.4-2.7 4-5.2 4l-140.4-0.1z" /><path fill-rule="evenodd" class="s9" d="m452.2 112.7c6.2-2.1 11.6 2.1 12.1 9.6c0.7 7.4-3.9 15.1-10.2 17.1c-6.2 2.1-11.8-2.1-12.3-9.6c-0.6-7.3 4.1-15 10.4-17.1z" /><path fill-rule="evenodd" class="s7" d="m437.3 110.4c1.8-1.7 4.2-2.7 6.7-2.6c2.5 0 4.9 1.1 6.6 2.9c1.8 1.8 2.7 4.2 2.7 6.7c-0.1 2.5-1.1 4.9-2.9 6.6c-1.8 1.8-4.3 2.7-6.8 2.7c-2.5-0.1-4.8-1.1-6.6-2.9c-1.7-1.8-2.7-4.2-2.6-6.7c0-2.6 1.1-4.9 2.9-6.7z" /><path fill-rule="evenodd" class="s6" d="m333.9 184.9l13.8 0.2v3.3l-13.9-0.3zm-24.3-0.4l13.7 0.3v3.2l-13.8-0.2zm-8.7 1.5c0-0.5 0.1-0.9 0.5-1.3c0.3-0.3 0.7-0.5 1.2-0.5c0.5 0 0.9 0.2 1.2 0.5c0.4 0.4 0.5 0.8 0.5 1.3c0 0.4-0.1 0.9-0.5 1.2c-0.3 0.3-0.7 0.5-1.2 0.5c-0.5 0-0.9-0.2-1.2-0.5c-0.4-0.3-0.5-0.8-0.6-1.2z" /><path fill-rule="evenodd" class="s11" d="m305.2 177.9c0 0-4-2.2-6.1-4.3c-1-1-1.1-2.3-0.9-2.5c0.9-1.4 1.5-3.1 2.6-3.1c2.8 0.4 9 4.3 9 4.3c0 0 0 3-0.6 3.8c-0.8 1-4.1 1.8-4.1 1.8" /><path fill-rule="evenodd" class="s11" d="m308.4 180.3c-1 0.5-2.2 0-2.7-1l-2.1-4.5l1.7-0.9l3.1 6.3z" /><path fill-rule="evenodd" class="s11" d="m309.4 181.3c-1 0.3-2.2-0.4-2.5-1.6l-1.6-5.5l1.9-0.6z" /><path fill-rule="evenodd" class="s11" d="m311.4 180.9c-1 0.4-2.2-0.2-2.6-1.5l-2.1-5.3l1.8-0.8l2.9 7.5z" /><path fill-rule="evenodd" class="s11" d="m315.9 178.5c-0.8 0.8-2.3 0.5-3.4-0.6l-4.9-4.9l2.4-0.4zm-20.7-8.2l5 1.6l1.2-3.7l-5-1.8z" /><path fill-rule="evenodd" class="s14" d="m291.5 164.1l6.9 2.3l-2.8 8.5l-6.9-2.2z" /><path fill-rule="evenodd" class="s15" d="m280.6 66.9c1.1 5.3-5.3 7.4-5.3 7.4l-1.7-7.3c2.5-0.9 3.5-3.4 3.5-3.4z" /><path fill-rule="evenodd" class="s14" d="m274.3 67.1l-5 6.3c0 0-3-2.7-3.7-5.8c-0.9-3.2 0-4.2 0-4.2l4.8-1.8c0 0 0 4 3.9 5.5z" /></svg>